{"title":"The Limits of Control.2009.x264.AC3(5.1).Nordic_Sub.mkv","uid":5483460,"size":1383231015,"categoryP":"video","categoryS":"movies","magnet":"?xt=urn:btih:03decea854907eae5fc33d416cb20db94df8306d&amp;dn=The+Limits+of+Control.2009.x264.AC3%285.1%29.Nordic_Sub.mkv&amp;tr=udp%3A%2F%2Ftracker.openbittorrent.com%3A80&amp;tr=udp%3A%2F%2Fopen.demonii.com%3A1337&amp;tr=udp%3A%2F%2Ftracker.coppersurfer.tk%3A6969&amp;tr=udp%3A%2F%2Fexodus.desync.com%3A6969","seeders":1,"leechers":0,"uploader":"Zen_Bud","files":-1,"time":1270571993,"description":"General\nComplete name                    : The Limits of Control.mkv\nFormat                           : Matroska\nFile size                        : 1.29 GiB\nDuration                         : 1h 51mn\nOverall bit rate                 : 1 659 Kbps\nWriting application              : HandBrake 0.9.4\n\nVideo\nID                               : 1\nFormat                           : AVC\nDuration                         : 1h 51mn\nBit rate                         : 1 178 Kbps\nWidth                            : 720 pixels\nHeight                           : 544 pixels\nDisplay aspect ratio             : 1.853\nResolution                       : 8 bits\nColorimetry                      : 4:2:0\nScan type                        : Progressive\nBits/(Pixel*Frame)               : 0.120\nStream size                      : 937 MiB (71%)\nWriting library                  : x264 core 79\n\n\nAudio\nID                               : 2\nFormat                           : AC-3\nFormat/Info                      : Audio Coding 3\nCodec ID                         : A_AC3\nDuration                         : 1h 51mn\nBit rate mode                    : Constant\nBit rate                         : 448 Kbps\nChannel(s)                       : 6 channels\nChannel positions                : Front: L C R, Side: L R, LFE\nSampling rate                    : 48.0 KHz\nStream size                      : 356 MiB (27%)\nLanguage                         : English\n\nText #1\nLanguage                         : Danish\n\nText #2\nLanguage                         : Swedish\n\nText #3\nLanguage                         : Norwegian\n\nText #4\nLanguage                         : Finnish\n\nMenu\n00:00:00.000                     : Chapter 1\n00:10:00.040                     : Chapter 2\n\n\n","torrent":{"xt":"urn:btih:03decea854907eae5fc33d416cb20db94df8306d","amp;dn":"The+Limits+of+Control.2009.x264.AC3%285.1%29.Nordic_Sub.mkv","amp;tr":["udp%3A%2F%2Ftracker.openbittorrent.com%3A80","udp%3A%2F%2Fopen.demonii.com%3A1337","udp%3A%2F%2Ftracker.coppersurfer.tk%3A6969","udp%3A%2F%2Fexodus.desync.com%3A6969"],"infoHash":"03decea854907eae5fc33d416cb20db94df8306d","infoHashBuffer":{"type":"Buffer","data":[3,222,206,168,84,144,126,174,95,195,61,65,108,178,13,185,77,248,48,109]},"announce":[],"urlList":[]}}